<svg preserveAspectRatio="none" width="100%" height="100%" overflow="visible" style="display: block;" viewBox="0 0 56 88" fill="none" xmlns="http://www.w3.org/2000/svg">
<path id="Icon" opacity="0.1" d="M32 88C29.8 88 27.9167 87.2167 26.35 85.65C24.7833 84.0833 24 82.2 24 80V71.7C17.1333 70.7667 11.4167 67.6833 6.85 62.45C2.28333 57.2167 0 51.0667 0 44V8C0 5.8 0.783333 3.91667 2.35 2.35C3.91667 0.783333 5.8 0 8 0H48C50.2 0 52.0833 0.783333 53.65 2.35C55.2167 3.91667 56 5.8 56 8V44C56 51.0667 53.7167 57.2167 49.15 62.45C44.5833 67.6833 38.8667 70.7667 32 71.7V80V80V80H56V88H32V88M35 48H47.6C47.7333 47.3333 47.8333 46.6833 47.9 46.05C47.9667 45.4167 48 44.7333 48 44V40H32V32H48V24H28V16H48V8V8V8H8V8V8V40H19C21.2 40 23.2833 40.5 25.25 41.5C27.2167 42.5 28.8667 43.8667 30.2 45.6C30.7333 46.3333 31.4333 46.9167 32.3 47.35C33.1667 47.7833 34.0667 48 35 48V48M28 64C31.2667 64 34.3 63.2833 37.1 61.85C39.9 60.4167 42.2 58.4667 44 56H35C32.8 56 30.7167 55.5 28.75 54.5C26.7833 53.5 25.1333 52.1333 23.8 50.4C23.2667 49.6667 22.5667 49.0833 21.7 48.65C20.8333 48.2167 19.9333 48 19 48H8.4C9.33333 52.6 11.6167 56.4167 15.25 59.45C18.8833 62.4833 23.1333 64 28 64V64M23.8 48V48V48V48V48V48V48V48V48V48V48V48" fill="var(--fill-0, #7B5556)"/>
</svg>
