<svg preserveAspectRatio="none" width="100%" height="100%" overflow="visible" style="display: block;" viewBox="0 0 25 25" fill="none" xmlns="http://www.w3.org/2000/svg">
<g id="Container">
<path id="Icon" d="M11.25 25V8.75H0L12.5 0L25 8.75H13.75V25H11.25V25M12.5 6.25H17.0625H7.9375H12.5V6.25M1.25 25V18.4375L0.25 12.9375L2.6875 12.5L3.625 17.5H8.75V25H6.25V20H3.75V25H1.25V25M16.25 25V17.5H21.375L22.3125 12.5L24.75 12.9375L23.75 18.4375V25H21.25V20H18.75V25H16.25V25M7.9375 6.25H17.0625L12.5 3.0625L7.9375 6.25V6.25" fill="var(--fill-0, #7B5556)"/>
</g>
</svg>
