<svg preserveAspectRatio="none" width="100%" height="100%" overflow="visible" style="display: block;" viewBox="0 0 106.667 96" fill="none" xmlns="http://www.w3.org/2000/svg">
<path id="Icon" d="M48 96V85.3333H90.6667V85.3333V85.3333V47.4667C90.6667 37.0667 87.0444 28.2444 79.8 21C72.5556 13.7556 63.7333 10.1333 53.3333 10.1333C42.9333 10.1333 34.1111 13.7556 26.8667 21C19.6222 28.2444 16 37.0667 16 47.4667V80H10.6667C7.73333 80 5.22222 78.9556 3.13333 76.8667C1.04444 74.7778 0 72.2667 0 69.3333V58.6667C0 56.8 0.466667 55.0444 1.4 53.4C2.33333 51.7556 3.64444 50.4444 5.33333 49.4667L5.73333 42.4C6.44444 36.3556 8.2 30.7556 11 25.6C13.8 20.4444 17.3111 15.9556 21.5333 12.1333C25.7556 8.31111 30.6 5.33333 36.0667 3.2C41.5333 1.06667 47.2889 0 53.3333 0C59.3778 0 65.1111 1.06667 70.5333 3.2C75.9556 5.33333 80.8 8.28889 85.0667 12.0667C89.3333 15.8444 92.8444 20.3111 95.6 25.4667C98.3556 30.6222 100.133 36.2222 100.933 42.2667L101.333 49.2C103.022 50 104.333 51.2 105.267 52.8C106.2 54.4 106.667 56.0889 106.667 57.8667V70.1333C106.667 71.9111 106.2 73.6 105.267 75.2C104.333 76.8 103.022 78 101.333 78.8V85.3333C101.333 88.2667 100.289 90.7778 98.2 92.8667C96.1111 94.9556 93.6 96 90.6667 96H48V96M37.3333 58.6667C35.8222 58.6667 34.5556 58.1556 33.5333 57.1333C32.5111 56.1111 32 54.8444 32 53.3333C32 51.8222 32.5111 50.5556 33.5333 49.5333C34.5556 48.5111 35.8222 48 37.3333 48C38.8444 48 40.1111 48.5111 41.1333 49.5333C42.1556 50.5556 42.6667 51.8222 42.6667 53.3333C42.6667 54.8444 42.1556 56.1111 41.1333 57.1333C40.1111 58.1556 38.8444 58.6667 37.3333 58.6667V58.6667M69.3333 58.6667C67.8222 58.6667 66.5556 58.1556 65.5333 57.1333C64.5111 56.1111 64 54.8444 64 53.3333C64 51.8222 64.5111 50.5556 65.5333 49.5333C66.5556 48.5111 67.8222 48 69.3333 48C70.8444 48 72.1111 48.5111 73.1333 49.5333C74.1556 50.5556 74.6667 51.8222 74.6667 53.3333C74.6667 54.8444 74.1556 56.1111 73.1333 57.1333C72.1111 58.1556 70.8444 58.6667 69.3333 58.6667V58.6667M21.4667 50.4C20.8444 40.9778 23.6889 32.8889 30 26.1333C36.3111 19.3778 44.1778 16 53.6 16C61.5111 16 68.4667 18.5111 74.4667 23.5333C80.4667 28.5556 84.0889 34.9778 85.3333 42.8C77.2444 42.7111 69.8 40.5333 63 36.2667C56.2 32 50.9778 26.2222 47.3333 18.9333C45.9111 26.0444 42.9111 32.3778 38.3333 37.9333C33.7556 43.4889 28.1333 47.6444 21.4667 50.4V50.4" fill="var(--fill-0, #7B5556)" fill-opacity="0.1"/>
</svg>
