<svg preserveAspectRatio="none" width="100%" height="100%" overflow="visible" style="display: block;" viewBox="0 0 37.02 37" fill="none" xmlns="http://www.w3.org/2000/svg">
<g id="Background">
<rect x="5" y="1" width="26.5" height="26.5" rx="13.25" fill="var(--fill-0, #7B5556)"/>
<g id="Overlay+Shadow" filter="url(#filter0_dd_8_276)">
<rect x="5" y="1" width="27.02" height="27" rx="13.5" fill="var(--fill-0, white)" fill-opacity="0.01" shape-rendering="crispEdges"/>
</g>
<path id="Icon" d="M14.1667 18.3333H14.9979L20.7 12.6312L19.8688 11.8L14.1667 17.5021V18.3333V18.3333M13 19.5V17.0208L20.7 9.33542C20.8167 9.22847 20.9455 9.14583 21.0865 9.0875C21.2274 9.02917 21.3757 9 21.5312 9C21.6868 9 21.8375 9.02917 21.9833 9.0875C22.1292 9.14583 22.2556 9.23333 22.3625 9.35L23.1646 10.1667C23.2812 10.2736 23.3663 10.4 23.4198 10.5458C23.4733 10.6917 23.5 10.8375 23.5 10.9833C23.5 11.1389 23.4733 11.2872 23.4198 11.4281C23.3663 11.5691 23.2812 11.6979 23.1646 11.8146L15.4792 19.5H13V19.5M22.3333 10.9833V10.9833L21.5167 10.1667V10.1667L22.3333 10.9833V10.9833M20.2771 12.2229L19.8688 11.8V11.8L20.7 12.6312V12.6312L20.2771 12.2229V12.2229" fill="var(--fill-0, white)"/>
</g>
<defs>
<filter id="filter0_dd_8_276" x="0" y="0" width="37.02" height="37" filterUnits="userSpaceOnUse" color-interpolation-filters="sRGB">
<feFlood flood-opacity="0" result="BackgroundImageFix"/>
<feColorMatrix in="SourceAlpha" type="matrix" values="0 0 0 0 0 0 0 0 0 0 0 0 0 0 0 0 0 0 127 0" result="hardAlpha"/>
<feMorphology radius="2" operator="erode" in="SourceAlpha" result="effect1_dropShadow_8_276"/>
<feOffset dy="2"/>
<feGaussianBlur stdDeviation="2"/>
<feComposite in2="hardAlpha" operator="out"/>
<feColorMatrix type="matrix" values="0 0 0 0 0 0 0 0 0 0 0 0 0 0 0 0 0 0 0.1 0"/>
<feBlend mode="normal" in2="BackgroundImageFix" result="effect1_dropShadow_8_276"/>
<feColorMatrix in="SourceAlpha" type="matrix" values="0 0 0 0 0 0 0 0 0 0 0 0 0 0 0 0 0 0 127 0" result="hardAlpha"/>
<feMorphology radius="1" operator="erode" in="SourceAlpha" result="effect2_dropShadow_8_276"/>
<feOffset dy="4"/>
<feGaussianBlur stdDeviation="3"/>
<feComposite in2="hardAlpha" operator="out"/>
<feColorMatrix type="matrix" values="0 0 0 0 0 0 0 0 0 0 0 0 0 0 0 0 0 0 0.1 0"/>
<feBlend mode="normal" in2="effect1_dropShadow_8_276" result="effect2_dropShadow_8_276"/>
<feBlend mode="normal" in="SourceGraphic" in2="effect2_dropShadow_8_276" result="shape"/>
</filter>
</defs>
</svg>
