<svg preserveAspectRatio="none" width="100%" height="100%" overflow="visible" style="display: block;" viewBox="0 0 96 112" fill="none" xmlns="http://www.w3.org/2000/svg">
<g id="Decorative Floral/Editorial Element (Iconography)" opacity="0.1">
<path id="Icon" d="M48 42.6667C49.5111 42.6667 50.7778 42.1556 51.8 41.1333C52.8222 40.1111 53.3333 38.8444 53.3333 37.3333C53.3333 35.8222 52.8222 34.5556 51.8 33.5333C50.7778 32.5111 49.5111 32 48 32C46.4889 32 45.2222 32.5111 44.2 33.5333C43.1778 34.5556 42.6667 35.8222 42.6667 37.3333C42.6667 38.8444 43.1778 40.1111 44.2 41.1333C45.2222 42.1556 46.4889 42.6667 48 42.6667V42.6667M48 74.6667C44.5333 74.6667 41.4 73.7111 38.6 71.8C35.8 69.8889 33.7778 67.3778 32.5333 64.2667C32.0889 64.2667 31.6889 64.2889 31.3333 64.3333C30.9778 64.3778 30.5778 64.4 30.1333 64.4C25.5111 64.4 21.5556 62.7556 18.2667 59.4667C14.9778 56.1778 13.3333 52.2222 13.3333 47.6C13.3333 45.7333 13.6444 43.9333 14.2667 42.2C14.8889 40.4667 15.8222 38.8444 17.0667 37.3333C15.9111 35.8222 15.0222 34.2 14.4 32.4667C13.7778 30.7333 13.4667 28.9333 13.4667 27.0667C13.4667 22.4444 15.0889 18.4889 18.3333 15.2C21.5778 11.9111 25.5111 10.2667 30.1333 10.2667C30.5778 10.2667 30.9778 10.2889 31.3333 10.3333C31.6889 10.3778 32.0889 10.4 32.5333 10.4C33.7778 7.28889 35.8 4.77778 38.6 2.86667C41.4 0.955555 44.5333 0 48 0C51.4667 0 54.6 0.955555 57.4 2.86667C60.2 4.77778 62.2222 7.28889 63.4667 10.4C63.9111 10.4 64.3111 10.3778 64.6667 10.3333C65.0222 10.2889 65.4222 10.2667 65.8667 10.2667C70.4889 10.2667 74.4222 11.9111 77.6667 15.2C80.9111 18.4889 82.5333 22.4444 82.5333 27.0667C82.5333 28.9333 82.2444 30.7333 81.6667 32.4667C81.0889 34.2 80.1778 35.8222 78.9333 37.3333C80.0889 38.8444 80.9778 40.4667 81.6 42.2C82.2222 43.9333 82.5333 45.7333 82.5333 47.6C82.5333 52.2222 80.9111 56.1778 77.6667 59.4667C74.4222 62.7556 70.4889 64.4 65.8667 64.4C65.4222 64.4 65.0222 64.3778 64.6667 64.3333C64.3111 64.2889 63.9111 64.2667 63.4667 64.2667C62.2222 67.3778 60.2 69.8889 57.4 71.8C54.6 73.7111 51.4667 74.6667 48 74.6667V74.6667M48 112C48 105.422 49.2667 99.2222 51.8 93.4C54.3333 87.5778 57.7778 82.4889 62.1333 78.1333C66.4889 73.7778 71.5778 70.3333 77.4 67.8C83.2222 65.2667 89.4222 64 96 64C96 70.5778 94.7333 76.7778 92.2 82.6C89.6667 88.4222 86.2222 93.5111 81.8667 97.8667C77.5111 102.222 72.4222 105.667 66.6 108.2C60.7778 110.733 54.5778 112 48 112V112M61.0667 98.9333C66.1333 97.0667 70.5778 94.2222 74.4 90.4C78.2222 86.5778 81.0667 82.1333 82.9333 77.0667C77.8667 78.9333 73.4222 81.7778 69.6 85.6C65.7778 89.4222 62.9333 93.8667 61.0667 98.9333V98.9333M48 112C48 105.422 46.7333 99.2222 44.2 93.4C41.6667 87.5778 38.2222 82.4889 33.8667 78.1333C29.5111 73.7778 24.4222 70.3333 18.6 67.8C12.7778 65.2667 6.57778 64 0 64C0 70.5778 1.26667 76.7778 3.8 82.6C6.33333 88.4222 9.77778 93.5111 14.1333 97.8667C18.4889 102.222 23.5778 105.667 29.4 108.2C35.2222 110.733 41.4222 112 48 112V112M34.9333 98.9333C29.8667 97.0667 25.4222 94.2222 21.6 90.4C17.7778 86.5778 14.9333 82.1333 13.0667 77.0667C18.1333 78.9333 22.5778 81.7778 26.4 85.6C30.2222 89.4222 33.0667 93.8667 34.9333 98.9333V98.9333M61.0667 98.9333V98.9333V98.9333V98.9333V98.9333V98.9333M34.9333 98.9333V98.9333V98.9333V98.9333V98.9333V98.9333M65.8667 53.7333C67.5556 53.7333 69 53.1333 70.2 51.9333C71.4 50.7333 72 49.2889 72 47.6C72 46.3556 71.6667 45.2667 71 44.3333C70.3333 43.4 69.4667 42.6667 68.4 42.1333L63.7333 39.8667C63.5556 40.8444 63.2889 41.8 62.9333 42.7333C62.5778 43.6667 62.1778 44.5333 61.7333 45.3333C61.2889 46.1333 60.7556 46.8889 60.1333 47.6C59.5111 48.3111 58.8444 48.9778 58.1333 49.6L62.4 52.6667C62.8444 53.0222 63.3556 53.2889 63.9333 53.4667C64.5111 53.6444 65.1556 53.7333 65.8667 53.7333V53.7333M63.7333 34.8L68.4 32.5333C69.4667 32 70.3111 31.2444 70.9333 30.2667C71.5556 29.2889 71.8667 28.2222 71.8667 27.0667C71.8667 25.3778 71.2889 23.9333 70.1333 22.7333C68.9778 21.5333 67.5556 20.9333 65.8667 20.9333C65.1556 20.9333 64.5333 21.0222 64 21.2C63.4667 21.3778 62.9333 21.6444 62.4 22L58 25.0667C58.7111 25.6889 59.4 26.3556 60.0667 27.0667C60.7333 27.7778 61.2889 28.5333 61.7333 29.3333C62.1778 30.1333 62.5778 31 62.9333 31.9333C63.2889 32.8667 63.5556 33.8222 63.7333 34.8V34.8M42.5333 22.4C43.4222 22.0444 44.3111 21.7778 45.2 21.6C46.0889 21.4222 47.0222 21.3333 48 21.3333C48.9778 21.3333 49.9111 21.4222 50.8 21.6C51.6889 21.7778 52.5778 22.0444 53.4667 22.4L54.1333 16.5333C54.3111 14.9333 53.7556 13.5556 52.4667 12.4C51.1778 11.2444 49.6889 10.6667 48 10.6667C46.3111 10.6667 44.8222 11.2444 43.5333 12.4C42.2444 13.5556 41.6889 14.9333 41.8667 16.5333L42.5333 22.4V22.4M48 64C49.6889 64 51.1778 63.4222 52.4667 62.2667C53.7556 61.1111 54.3111 59.7333 54.1333 58.1333L53.4667 52.2667C52.5778 52.6222 51.6889 52.8889 50.8 53.0667C49.9111 53.2444 48.9778 53.3333 48 53.3333C47.0222 53.3333 46.0889 53.2444 45.2 53.0667C44.3111 52.8889 43.4222 52.6222 42.5333 52.2667L41.8667 58.1333C41.6889 59.7333 42.2444 61.1111 43.5333 62.2667C44.8222 63.4222 46.3111 64 48 64V64M32.2667 34.8C32.4444 33.8222 32.7111 32.8667 33.0667 31.9333C33.4222 31 33.8222 30.1333 34.2667 29.3333C34.7111 28.5333 35.2444 27.7778 35.8667 27.0667C36.4889 26.3556 37.1556 25.6889 37.8667 25.0667L33.6 22C33.1556 21.6444 32.6444 21.3778 32.0667 21.2C31.4889 21.0222 30.8444 20.9333 30.1333 20.9333C28.4444 20.9333 27 21.5333 25.8 22.7333C24.6 23.9333 24 25.3778 24 27.0667C24 28.2222 24.3333 29.2889 25 30.2667C25.6667 31.2444 26.5333 32 27.6 32.5333L32.2667 34.8V34.8M30.1333 53.6C30.8444 53.6 31.4667 53.5333 32 53.4C32.5333 53.2667 33.0667 52.9778 33.6 52.5333L38 49.6C37.2889 48.9778 36.6 48.3111 35.9333 47.6C35.2667 46.8889 34.7111 46.1333 34.2667 45.3333C33.8222 44.5333 33.4222 43.6667 33.0667 42.7333C32.7111 41.8 32.4444 40.8444 32.2667 39.8667L27.6 42.1333C26.5333 42.6667 25.6889 43.4222 25.0667 44.4C24.4444 45.3778 24.1333 46.4444 24.1333 47.6C24.2222 49.2889 24.8222 50.7111 25.9333 51.8667C27.0444 53.0222 28.4444 53.6 30.1333 53.6V53.6M61.7333 45.3333V45.3333V45.3333V45.3333V45.3333V45.3333V45.3333V45.3333V45.3333V45.3333V45.3333V45.3333V45.3333V45.3333M61.7333 29.3333V29.3333V29.3333V29.3333V29.3333V29.3333V29.3333V29.3333V29.3333V29.3333V29.3333V29.3333V29.3333V29.3333M48 21.3333V21.3333V21.3333V21.3333V21.3333V21.3333V21.3333V21.3333V21.3333V21.3333V21.3333V21.3333M48 53.3333V53.3333V53.3333V53.3333V53.3333V53.3333V53.3333V53.3333V53.3333V53.3333V53.3333V53.3333M34.2667 29.3333V29.3333V29.3333V29.3333V29.3333V29.3333V29.3333V29.3333V29.3333V29.3333V29.3333V29.3333V29.3333V29.3333M34.2667 45.3333V45.3333V45.3333V45.3333V45.3333V45.3333V45.3333V45.3333V45.3333V45.3333V45.3333V45.3333V45.3333V45.3333" fill="var(--fill-0, #7B5556)"/>
</g>
</svg>
