<svg preserveAspectRatio="none" width="100%" height="100%" overflow="visible" style="display: block;" viewBox="0 0 27.5 17.5" fill="none" xmlns="http://www.w3.org/2000/svg">
<g id="Container">
<path id="Icon" d="M23.875 14.9375C24.2292 15.125 24.5417 15.0833 24.8125 14.8125C25.0833 14.5417 25.125 14.2292 24.9375 13.875L23.125 10.5L21.8125 13.875L23.875 14.9375V14.9375M17.625 13.75H19.125L22.125 6.3125C22.1875 6.14583 22.1719 6.00521 22.0781 5.89062C21.9844 5.77604 21.875 5.6875 21.75 5.625L19.25 4.625C19.0625 4.5625 18.8802 4.58333 18.7031 4.6875C18.526 4.79167 18.4167 4.9375 18.375 5.125L17.625 13.75V13.75M8.375 13.75H9.875L9.125 5.125C9.08333 4.89583 8.97396 4.73958 8.79688 4.65625C8.61979 4.57292 8.4375 4.5625 8.25 4.625L5.75 5.625C5.58333 5.6875 5.46354 5.77604 5.39062 5.89062C5.31771 6.00521 5.3125 6.14583 5.375 6.3125L8.375 13.75V13.75M3.625 14.9375L5.6875 13.875L4.375 10.5L2.5625 13.875C2.375 14.2292 2.41667 14.5417 2.6875 14.8125C2.95833 15.0833 3.27083 15.125 3.625 14.9375V14.9375M12.375 13.75H15.125L16.0625 3.1875C16.1042 3 16.0573 2.83854 15.9219 2.70312C15.7865 2.56771 15.625 2.5 15.4375 2.5H12.0625C11.8958 2.5 11.7448 2.56771 11.6094 2.70312C11.474 2.83854 11.4167 3 11.4375 3.1875L12.375 13.75V13.75M3.0625 17.5C2.1875 17.5 1.45833 17.1719 0.875 16.5156C0.291667 15.8594 0 15.0833 0 14.1875C0 13.9375 0.0364583 13.6927 0.109375 13.4531C0.182292 13.2135 0.270833 12.9792 0.375 12.75L3.125 7.5C2.83333 6.66667 2.84375 5.84375 3.15625 5.03125C3.46875 4.21875 4.02083 3.64583 4.8125 3.3125L7.3125 2.3125C7.60417 2.20833 7.89583 2.13542 8.1875 2.09375C8.47917 2.05208 8.77083 2.0625 9.0625 2.125C9.35417 1.52083 9.76042 1.01562 10.2812 0.609375C10.8021 0.203125 11.3958 0 12.0625 0H15.4375C16.1042 0 16.6979 0.203125 17.2188 0.609375C17.7396 1.01562 18.1458 1.52083 18.4375 2.125C18.7292 2.08333 19.0208 2.07812 19.3125 2.10938C19.6042 2.14062 19.8958 2.20833 20.1875 2.3125L22.6875 3.3125C23.5208 3.64583 24.1042 4.21875 24.4375 5.03125C24.7708 5.84375 24.75 6.64583 24.375 7.4375L27.125 12.6875C27.25 12.9167 27.3438 13.1562 27.4062 13.4062C27.4688 13.6562 27.5 13.9167 27.5 14.1875C27.5 15.125 27.1823 15.9115 26.5469 16.5469C25.9115 17.1823 25.125 17.5 24.1875 17.5C23.9583 17.5 23.7292 17.474 23.5 17.4219C23.2708 17.3698 23.0417 17.2917 22.8125 17.1875L20.875 16.25H6.5625L4.8125 17.1875C4.54167 17.3333 4.25521 17.4219 3.95312 17.4531C3.65104 17.4844 3.35417 17.5 3.0625 17.5V17.5M13.75 8.75V8.75V8.75V8.75V8.75V8.75V8.75V8.75V8.75V8.75V8.75V8.75V8.75V8.75V8.75V8.75V8.75V8.75V8.75V8.75V8.75V8.75V8.75V8.75V8.75V8.75V8.75V8.75V8.75V8.75V8.75V8.75V8.75V8.75" fill="var(--fill-0, #536443)"/>
</g>
</svg>
