<svg preserveAspectRatio="none" width="100%" height="100%" overflow="visible" style="display: block;" viewBox="0 0 12.8333 12.8333" fill="none" xmlns="http://www.w3.org/2000/svg">
<g id="Container">
<path id="Icon" d="M5.83333 2.33333V0H7V2.33333H5.83333V2.33333M9.7125 3.9375L8.91042 3.13542L10.5437 1.45833L11.3604 2.28958L9.7125 3.9375V3.9375M10.5 7V5.83333H12.8333V7H10.5V7M5.83333 12.8333V10.5H7V12.8333H5.83333V12.8333M3.12083 3.90833L1.45833 2.28958L2.28958 1.47292L3.9375 3.12083L3.12083 3.90833V3.90833M10.5292 11.375L8.91042 9.69792L9.69792 8.91042L11.3604 10.5146L10.5292 11.375V11.375M0 7V5.83333H2.33333V7H0V7M2.28958 11.375L1.47292 10.5437L3.10625 8.91042L3.52917 9.30417L3.95208 9.7125L2.28958 11.375V11.375M6.41667 9.91667C5.44444 9.91667 4.61806 9.57639 3.9375 8.89583C3.25694 8.21528 2.91667 7.38889 2.91667 6.41667C2.91667 5.44444 3.25694 4.61806 3.9375 3.9375C4.61806 3.25694 5.44444 2.91667 6.41667 2.91667C7.38889 2.91667 8.21528 3.25694 8.89583 3.9375C9.57639 4.61806 9.91667 5.44444 9.91667 6.41667C9.91667 7.38889 9.57639 8.21528 8.89583 8.89583C8.21528 9.57639 7.38889 9.91667 6.41667 9.91667V9.91667M6.41667 8.75C7.05833 8.75 7.60764 8.52153 8.06458 8.06458C8.52153 7.60764 8.75 7.05833 8.75 6.41667C8.75 5.775 8.52153 5.22569 8.06458 4.76875C7.60764 4.31181 7.05833 4.08333 6.41667 4.08333C5.775 4.08333 5.22569 4.31181 4.76875 4.76875C4.31181 5.22569 4.08333 5.775 4.08333 6.41667C4.08333 7.05833 4.31181 7.60764 4.76875 8.06458C5.22569 8.52153 5.775 8.75 6.41667 8.75V8.75M6.41667 6.41667V6.41667V6.41667V6.41667V6.41667V6.41667V6.41667V6.41667V6.41667V6.41667" fill="var(--fill-0, #7B5556)"/>
</g>
</svg>
