<svg preserveAspectRatio="none" width="100%" height="100%" overflow="visible" style="display: block;" viewBox="0 0 46 46" fill="none" xmlns="http://www.w3.org/2000/svg">
<g id="Background">
<rect width="46" height="46" rx="23" fill="var(--fill-0, #E3F8CC)"/>
<path id="Icon" d="M30 20L28.75 17.25L26 16L28.75 14.75L30 12L31.25 14.75L34 16L31.25 17.25L30 20V20M30 34L28.75 31.25L26 30L28.75 28.75L30 26L31.25 28.75L34 30L31.25 31.25L30 34V34M20 31L17.5 25.5L12 23L17.5 20.5L20 15L22.5 20.5L28 23L22.5 25.5L20 31V31M20 26.15L21 24L23.15 23L21 22L20 19.85L19 22L16.85 23L19 24L20 26.15V26.15M20 23V23V23V23V23V23V23V23V23V23" fill="var(--fill-0, #536443)"/>
</g>
</svg>
