<svg preserveAspectRatio="none" width="100%" height="100%" overflow="visible" style="display: block;" viewBox="0 0 39 44" fill="none" xmlns="http://www.w3.org/2000/svg">
<g id="Background">
<rect width="39" height="44" rx="19.5" fill="var(--fill-0, #E9E8E7)"/>
<path id="Icon" d="M15 32V22.85C14.15 22.6167 13.4375 22.15 12.8625 21.45C12.2875 20.75 12 19.9333 12 19V12H14V19H15V12H17V19H18V12H20V19C20 19.9333 19.7125 20.75 19.1375 21.45C18.5625 22.15 17.85 22.6167 17 22.85V32H15V32M25 32V24H22V17C22 15.6167 22.4875 14.4375 23.4625 13.4625C24.4375 12.4875 25.6167 12 27 12V32H25V32" fill="var(--fill-0, #5F5F5F)"/>
</g>
</svg>
